<svg width="400" height="100" xmlns="http://www.w3.org/2000/svg">
  <defs>
    <linearGradient id="lowRiskGradient" x1="0%" y1="0%" x2="100%" y2="0%">
      <stop offset="0%" style="stop-color:#22c55e;stop-opacity:1" />
      <stop offset="50%" style="stop-color:#3b82f6;stop-opacity:1" />
      <stop offset="100%" style="stop-color:#8b5cf6;stop-opacity:1" />
    </linearGradient>
  </defs>
  
  <!-- Background -->
  <rect width="400" height="100" fill="#1a1a1a" rx="8"/>
  
  <!-- Waveform visualization (calmer, more consistent pattern) -->
  <g fill="url(#lowRiskGradient)" opacity="0.7">
    <!-- Simulated audio waveform bars - more consistent, lower amplitude -->
    <rect x="10" y="45" width="3" height="10" />
    <rect x="16" y="42" width="3" height="16" />
    <rect x="22" y="40" width="3" height="20" />
    <rect x="28" y="43" width="3" height="14" />
    <rect x="34" y="41" width="3" height="18" />
    <rect x="40" y="44" width="3" height="12" />
    <rect x="46" y="42" width="3" height="16" />
    <rect x="52" y="40" width="3" height="20" />
    <rect x="58" y="45" width="3" height="10" />
    <rect x="64" y="43" width="3" height="14" />
    <rect x="70" y="41" width="3" height="18" />
    <rect x="76" y="44" width="3" height="12" />
    <rect x="82" y="42" width="3" height="16" />
    <rect x="88" y="40" width="3" height="20" />
    <rect x="94" y="45" width="3" height="10" />
    <rect x="100" y="43" width="3" height="14" />
    <rect x="106" y="41" width="3" height="18" />
    <rect x="112" y="42" width="3" height="16" />
    <rect x="118" y="40" width="3" height="20" />
    <rect x="124" y="44" width="3" height="12" />
    <rect x="130" y="45" width="3" height="10" />
    <rect x="136" y="43" width="3" height="14" />
    <rect x="142" y="41" width="3" height="18" />
    <rect x="148" y="42" width="3" height="16" />
    <rect x="154" y="40" width="3" height="20" />
    <rect x="160" y="44" width="3" height="12" />
    <rect x="166" y="45" width="3" height="10" />
    <rect x="172" y="43" width="3" height="14" />
    <rect x="178" y="41" width="3" height="18" />
    <rect x="184" y="42" width="3" height="16" />
    <rect x="190" y="40" width="3" height="20" />
    <rect x="196" y="44" width="3" height="12" />
    <rect x="202" y="45" width="3" height="10" />
    <rect x="208" y="43" width="3" height="14" />
    <rect x="214" y="41" width="3" height="18" />
    <rect x="220" y="42" width="3" height="16" />
    <rect x="226" y="40" width="3" height="20" />
    <rect x="232" y="44" width="3" height="12" />
    <rect x="238" y="45" width="3" height="10" />
    <rect x="244" y="43" width="3" height="14" />
    <rect x="250" y="41" width="3" height="18" />
    <rect x="256" y="42" width="3" height="16" />
    <rect x="262" y="40" width="3" height="20" />
    <rect x="268" y="44" width="3" height="12" />
    <rect x="274" y="45" width="3" height="10" />
    <rect x="280" y="43" width="3" height="14" />
    <rect x="286" y="41" width="3" height="18" />
    <rect x="292" y="42" width="3" height="16" />
    <rect x="298" y="40" width="3" height="20" />
    <rect x="304" y="44" width="3" height="12" />
    <rect x="310" y="45" width="3" height="10" />
    <rect x="316" y="43" width="3" height="14" />
    <rect x="322" y="41" width="3" height="18" />
    <rect x="328" y="42" width="3" height="16" />
    <rect x="334" y="40" width="3" height="20" />
    <rect x="340" y="44" width="3" height="12" />
    <rect x="346" y="45" width="3" height="10" />
    <rect x="352" y="43" width="3" height="14" />
    <rect x="358" y="41" width="3" height="18" />
    <rect x="364" y="42" width="3" height="16" />
    <rect x="370" y="40" width="3" height="20" />
    <rect x="376" y="44" width="3" height="12" />
    <rect x="382" y="45" width="3" height="10" />
  </g>
  
  <!-- Title -->
  <text x="200" y="20" text-anchor="middle" fill="#ffffff" font-family="Arial, sans-serif" font-size="12" font-weight="bold">
    Demo Call 2: Low-Risk Advisory Session
  </text>
  
  <!-- Duration -->
  <text x="200" y="90" text-anchor="middle" fill="#888888" font-family="Arial, sans-serif" font-size="10">
    Duration: 13:45 | Risk Score: 25%
  </text>
</svg>